<?xml version="1.0" encoding="UTF-8"?>
<svg width="95px" height="32px" viewBox="0 0 95 32" version="1.1" xmlns="http://www.w3.org/2000/svg" xmlns:xlink="http://www.w3.org/1999/xlink">
    <title>lofo_FHIR</title>
    <g id="lofo_FHIR" stroke="none" stroke-width="1" fill="none" fill-rule="evenodd">
        <g id="logo-text-on-dark" transform="translate(5.000000, 2.000000)" fill="#FFFFFF" fill-rule="nonzero">
            <path d="M6.78226004,28 L6.78226004,16.6723647 L15.2700007,16.6723647 L15.2700007,11.3675214 L6.78226004,11.3675214 L6.78226004,5.46438746 L18.1256891,5.46438746 L18.1256891,0 L0,0 L0,28 L6.78226004,28 Z M28.7299567,28 L28.7299567,16.4729345 L39.280139,16.4729345 L39.280139,28 L46.0623991,28 L46.0623991,0 L39.280139,0 L39.280139,10.968661 L28.7299567,10.968661 L28.7299567,0 L21.9476967,0 L21.9476967,28 L28.7299567,28 Z M57.9755239,28 L57.9755239,0 L51.1932638,0 L51.1932638,28 L57.9755239,28 Z M69.928311,28 L69.928311,17.4301994 L71.5544669,17.4301994 L77.3451685,28 L85,28 L78.574701,16.9116809 C80.6107011,16.300095 82.150922,15.2630579 83.1953636,13.8005698 C84.2398052,12.3380817 84.762026,10.6761633 84.762026,8.81481481 C84.762026,7.16619183 84.3786233,5.67046534 83.6118181,4.32763533 C82.8450129,2.98480532 81.6881947,1.92782526 80.1413634,1.15669516 C78.5945322,0.385565052 76.7237918,0 74.5291424,0 L74.5291424,0 L63.146051,0 L63.146051,28 L69.928311,28 Z M74.132519,12.6039886 L69.928311,12.6039886 L69.928311,5.66381766 L74.132519,5.66381766 C75.3752723,5.66381766 76.3073373,5.96961064 76.9287139,6.58119658 C77.5500906,7.19278253 77.8607789,8.03038936 77.8607789,9.09401709 C77.8607789,10.2108262 77.5500906,11.0750237 76.9287139,11.6866097 C76.3073373,12.2981956 75.3752723,12.6039886 74.132519,12.6039886 L74.132519,12.6039886 Z" id="FHIR"></path>
        </g>
    </g>
</svg>